<svg width="16" height="16" viewBox="0 0 16 16" fill="none" xmlns="http://www.w3.org/2000/svg">
<path d="M2.5 13C2.5 13.5305 2.71071 14.0392 3.08579 14.4143C3.46086 14.7893 3.96957 15 4.5 15H7.375C7.40815 15 7.43995 14.9869 7.46339 14.9634C7.48683 14.94 7.5 14.9082 7.5 14.875V9.12504C7.5 9.09189 7.48683 9.06009 7.46339 9.03665C7.43995 9.01321 7.40815 9.00004 7.375 9.00004H2.75C2.6837 9.00004 2.62011 9.02638 2.57322 9.07326C2.52634 9.12014 2.5 9.18373 2.5 9.25004V13ZM7.5 7.87504V4.50004H8.5V7.87504C8.5 7.90819 8.51317 7.93998 8.53661 7.96343C8.56005 7.98687 8.59185 8.00004 8.625 8.00004H13C13.1703 8.00003 13.3394 7.97097 13.5 7.9141C13.7922 7.81036 14.0452 7.61877 14.2242 7.36561C14.4032 7.11245 14.4996 6.81011 14.5 6.50004V6.00004C14.5 5.60221 14.342 5.22068 14.0607 4.93938C13.7794 4.65807 13.3978 4.50004 13 4.50004H11.7331C11.7222 4.49986 11.7116 4.49685 11.7022 4.49129C11.6929 4.48574 11.6851 4.47783 11.6797 4.46836C11.6744 4.45889 11.6716 4.44818 11.6716 4.43729C11.6717 4.4264 11.6746 4.41571 11.68 4.40629C11.9693 3.91781 12.0633 3.33802 11.9431 2.78317C11.8228 2.22832 11.4973 1.73943 11.0317 1.41453C10.5662 1.08962 9.99498 0.952733 9.43272 1.0313C8.87045 1.10987 8.35868 1.39809 8 1.83816C7.64132 1.39809 7.12955 1.10987 6.56728 1.0313C6.00502 0.952733 5.43383 1.08962 4.96827 1.41453C4.5027 1.73943 4.17716 2.22832 4.05693 2.78317C3.93671 3.33802 4.03068 3.91781 4.32 4.40629C4.32545 4.41571 4.32833 4.4264 4.32838 4.43729C4.32842 4.44818 4.32562 4.45889 4.32025 4.46836C4.31489 4.47783 4.30714 4.48574 4.29778 4.49129C4.28841 4.49685 4.27776 4.49986 4.26687 4.50004H3C2.60218 4.50004 2.22064 4.65807 1.93934 4.93938C1.65804 5.22068 1.5 5.60221 1.5 6.00004V6.50004C1.50044 6.81011 1.59678 7.11245 1.77581 7.36561C1.95484 7.61877 2.2078 7.81036 2.5 7.9141C2.66057 7.97097 2.82966 8.00003 3 8.00004H7.375C7.40815 8.00004 7.43995 7.98687 7.46339 7.96343C7.48683 7.93998 7.5 7.90819 7.5 7.87504ZM8.5 3.25004C8.5 3.00281 8.57331 2.76114 8.71066 2.55557C8.84801 2.35001 9.04324 2.1898 9.27165 2.09519C9.50005 2.00058 9.75139 1.97582 9.99386 2.02406C10.2363 2.07229 10.4591 2.19134 10.6339 2.36615C10.8087 2.54097 10.9278 2.7637 10.976 3.00617C11.0242 3.24865 10.9995 3.49998 10.9048 3.72839C10.8102 3.9568 10.65 4.15202 10.4445 4.28937C10.2389 4.42673 9.99723 4.50004 9.75 4.50004H8.5V3.25004ZM6.16062 2.00316C6.33187 1.99089 6.50382 2.01402 6.66573 2.07112C6.82765 2.12822 6.97606 2.21807 7.10173 2.33505C7.22739 2.45204 7.32761 2.59365 7.39613 2.75108C7.46465 2.9085 7.50001 3.07835 7.5 3.25004V4.50004H6.25C5.92678 4.49921 5.61644 4.37321 5.38413 4.14848C5.15181 3.92376 5.01557 3.61778 5.00401 3.29476C4.99244 2.97175 5.10645 2.65681 5.32211 2.41605C5.53776 2.17528 5.83829 2.02741 6.16062 2.00347V2.00316ZM8.625 15H11.5C12.0304 15 12.5391 14.7893 12.9142 14.4143C13.2893 14.0392 13.5 13.5305 13.5 13V9.25004C13.5 9.18373 13.4737 9.12014 13.4268 9.07326C13.3799 9.02638 13.3163 9.00004 13.25 9.00004H8.625C8.59185 9.00004 8.56005 9.01321 8.53661 9.03665C8.51317 9.06009 8.5 9.09189 8.5 9.12504V14.875C8.5 14.9082 8.51317 14.94 8.53661 14.9634C8.56005 14.9869 8.59185 15 8.625 15Z" fill="white"/>
</svg>
